<svg xmlns="http://www.w3.org/2000/svg" viewBox="-1376 546.6 90 45">
    <title>Bitly</title>
    <path d="M-1329.1 577c-4.5 0-7-2.7-7-6 0-1.3.1-11.4.1-11.4-1.5 0-2.2-.8-2.2-1.7 0-1 .8-1.9 2-1.9v-4.7c0-1.6 1.2-2.9 2.8-2.9 1.6 0 2.8 1.3 2.8 2.9 0 1.2-.1 2.8-.1 4.7h2.9c1.5 0 2.2.8 2.2 1.9 0 1.1-.8 1.8-1.9 1.8h-3.2c-.1 3.2-.2 7.1-.2 10.1 0 1.1.8 2.4 2.6 2.4 4.3 0 5.5-4.3 5.5-12.4 0-1.1.9-1.9 1.9-1.9 1.1 0 1.9.8 1.9 1.9.1 10.7-2.5 17.2-10.1 17.2" fill="#ee6123"/>
    <path d="M-1310.9 560.5s1.8-1.2 2.9-1.2c1.1 0 .9.2.9 1.3 0 11.6-2.1 16.5-9.6 16.5-3.3 0-6.3-2.4-6.3-5.4 0-1.2.2-3.5.2-4.6 0-11.2-.2-13.5-.2-16.8 0-1.6 1.3-3 2.9-3 1.6 0 2.8 1.3 2.8 2.9 0 3.3-.4 8-.5 20.4 0 1 .5 1.8 1.8 1.8 4.3-.2 4.9-5.1 5.1-11.9" fill="#ee6123"/>
    <path d="M-1297.3 575s-1.6 2.1-5.6 2c-5.3-.1-7.7-4.3-8-8.6-.2-3.3-.1-5.1-.1-7.3 0-1.6 1.1-2.9 2.6-2.9 1.6 0 2.5 1.3 2.5 2.9 0 2.1-.1 3.5-.2 5.9 0 2.8.9 5.3 3.2 5.2 2.2 0 4.7-.9 4.7-5.7v-5.4c0-1.6 1.1-2.9 2.7-2.9s2.7 1.3 2.7 2.9c0 2.1-.2 3.8-.2 7.1 0 0-.1 6.6.1 8.1.7-.2 1.8-1 2.9-2.7.7-1 2-1.3 2.7-.8 1.1.6 1.1 1.9.6 2.8-1.1 2.3-2.4 3.8-5.9 5 0 4-.3 9.8-7.6 10.9-6.3.9-9.1-2.7-9.1-5.8 0-4.9 4.9-6.3 11.9-8.1l.1-2.6zm.6 6.4c-3.6.8-8 1.9-8 4.1 0 2.1 2.2 2.4 4 2.1 3.7-.8 4.1-3 4-6.2zM-1347.6 571.6c0-1.3-.2-12.2-.2-12.2 0-1.6 1-2.9 2.6-2.9s2.6 1.4 2.6 2.9c-.2 5.1-.3 8.4-.3 10.2 0 1 .6 2.6 2.2 2.6 3.8 0 4.6-3.5 4.6-12.1 0-1.1 1.1-1.9 2.2-1.9s1.9.8 1.9 1.9c0 13-2.3 16.9-9.6 16.9-2.8 0-6-1.9-6-5.4" fill="#ee6123"/>
    <path d="M-1345.8 557.5c-1.1 0-1.1.2-1.8 1.3 0 4.8-1.2 10.7-6.6 12.9 3.8-8-.1-15.3-6.4-15.3-3 0-4.9 1.1-6.1 2.1 0-2.3.1-6.4.1-6.4 0-2.9-1-5.1-4.5-5.2-2 0-3.5.9-4.5 3-.3.8-.2 1.6.5 2 .6.3 1.5.1 1.9-.5.3-.4.5-.5.7-.4.4 0 .4.7.5 1.2 0 .3.3 5.1.2 17.7 0 3.5 2.7 7.5 9.3 7.5 13 0 18.6-4.8 18.6-17.7-.3-1.2-.9-2.2-1.9-2.2zm-16.9 14.9c-2.5 0-4.2-.7-4.3-2.9v-2.2c.2-3.1 2.4-5.4 4.6-5.8 2.7-.5 4.5.7 4.5 4.2-.1 2.4-.8 6.6-4.8 6.7zM-1345.1 548.4c1.6 0 2.9 1.3 2.9 2.9s-1.3 2.9-2.9 2.9c-1.6 0-2.9-1.3-2.9-2.9s1.3-2.9 2.9-2.9" fill="#ee6123"/>
</svg>